<?xml version="1.0" encoding="utf-8"?>
<!-- Generator: Adobe Illustrator 18.1.1, SVG Export Plug-In . SVG Version: 6.00 Build 0)  -->
<svg version="1.1" id="Calque_1" xmlns="http://www.w3.org/2000/svg" xmlns:xlink="http://www.w3.org/1999/xlink" x="0px" y="0px"
	 viewBox="0 0 75 75" enable-background="new 0 0 75 75" xml:space="preserve">
<path d="M56.9,59.1c-1.4,0-2.6-1.1-2.6-2.6V56h5.1v0.5C59.4,58,58.2,59.1,56.9,59.1z M51.1,52.4c-0.5,0-0.9,0.4-0.9,0.9v0.8
	c-0.1,0-0.1,0-0.2,0c-0.8,0.1-1.6,0.1-2.6,0.1c-1.9,0-3.7-0.3-5.2-0.8l-2-6.2L44,35.6c1.1,0.4,2.2,0.8,3.5,0.8
	c1.2,0,2.4-0.3,3.4-0.8l1,3.1c-0.1,0-0.1,0-0.1,0h-0.6c-0.5,0-0.9,0.4-0.9,0.9v3.1c0,0.5,0.4,0.9,0.9,0.9h0.6c0.1,0,0.1,0,0.2-0.1
	v8.9c-0.1,0-0.1-0.1-0.2-0.1L51.1,52.4L51.1,52.4z M27,60c-1.7,0-3.3-0.1-4.8-0.4V46.2c0-2.2,1.8-3.9,3.9-3.9c2.2,0,3.9,1.8,3.9,3.9
	c0,0.6,0.5,1.1,1.1,1.1c0.6,0,1.1-0.5,1.1-1.1c0-3.4-2.8-6.2-6.2-6.2c-3.5,0-6.2,2.8-6.2,6.2v12.9c-3.7-1.1-5.9-2.8-6.1-4.4
	l7.7-23.9c1.6,0.8,3.5,1.4,5.5,1.4c1.9,0,3.8-0.5,5.5-1.4l5.4,16.7c0,0.1,0.1,0.2,0.1,0.4l2.2,6.8C40,57.1,34.6,60,27,60z
	 M17.4,20.2c0-5.2,4.3-9.5,9.6-9.5c5.3,0,9.6,4.3,9.6,9.5s-4.3,9.5-9.6,9.5C21.8,29.7,17.4,25.4,17.4,20.2z M41.4,28.1
	c0-3.3,2.7-6,6-6c3.3,0,6,2.7,6,6c0,3.3-2.7,6-6,6C44.1,34.1,41.4,31.4,41.4,28.1z M56.9,37c1.4,0,2.5,1.1,2.5,2.5v0.5h-5.1v-0.5
	C54.3,38.1,55.4,37,56.9,37z M54.3,42.4h5.1v11.3h-5.1V42.4z M61.9,43.6h0.6c0.5,0,0.9-0.4,0.9-0.9v-3.1c0-0.5-0.4-0.9-0.9-0.9h-0.6
	c-0.1,0-0.2,0-0.3,0.1c-0.3-2.3-2.3-4.1-4.8-4.1c-1.4,0-2.6,0.5-3.5,1.4l-0.6-1.7c1.8-1.5,2.9-3.8,2.9-6.3c0-4.6-3.8-8.2-8.3-8.2
	c-4.6,0-8.3,3.7-8.3,8.2c0,2.5,1.1,4.7,2.9,6.3l-2.9,9.1l-4.6-14.1c2.7-2.2,4.4-5.5,4.4-9.2c0-6.5-5.3-11.9-11.9-11.9
	c-6.5,0-11.9,5.3-11.9,11.9c0,3.8,1.7,7.1,4.4,9.2l-7.9,24.8c0,0.1-0.1,0.2-0.1,0.4c0,2.2,1.7,4.3,4.9,5.8c1.1,0.5,2.2,0.9,3.5,1.2
	v4.1c0,0.6,0.5,1.1,1.1,1.1s1.1-0.5,1.1-1.1V62c1.5,0.2,3.1,0.4,4.8,0.4c4,0,7.8-0.8,10.6-2c2.5-1.1,4.1-2.6,4.6-4.4
	c1.6,0.4,3.3,0.7,5.1,0.7c1,0,1.9-0.1,2.8-0.1v0.1c0,0.5,0.4,0.9,0.9,0.9h0.8c0.1,0,0.2,0,0.3-0.1c0.3,2.3,2.3,4.1,4.8,4.1
	c2.4,0,4.4-1.8,4.8-4.1c0.1,0,0.2,0.1,0.3,0.1h0.6c0.5,0,0.9-0.4,0.9-0.9v-3.1c0-0.5-0.4-0.9-0.9-0.9H62c-0.1,0-0.1,0-0.2,0.1v-9.1
	C61.7,43.6,61.8,43.6,61.9,43.6z"/>
</svg>
