<?xml version="1.0" encoding="utf-8"?>
<!-- Generator: Adobe Illustrator 18.1.1, SVG Export Plug-In . SVG Version: 6.00 Build 0)  -->
<svg version="1.1" id="Calque_1" xmlns="http://www.w3.org/2000/svg" xmlns:xlink="http://www.w3.org/1999/xlink" x="0px" y="0px"
	 viewBox="0 0 75 75" enable-background="new 0 0 75 75" xml:space="preserve">
<path d="M40.4,49.6c-3.2,3.3-7.9,4.9-12.4,5.6c-7.2,0.9-15.1,0.5-21.4-3.5c-1-0.5-1.8-1.2-2.6-2c-0.2,0.5-0.3,1.1-0.3,1.6
	c0,5.1,8.3,9.2,18.5,9.2c10.2,0,18.5-4.1,18.5-9.2C40.7,50.8,40.6,50.2,40.4,49.6z M4.1,42.8c-0.2,0.6-0.3,1.1-0.3,1.7
	c0,2.9,2.7,5.5,7,7.2c0,0,0.1,0,0.1,0c0.1,0,0.2,0.1,0.3,0.1c2.1,0.8,4.4,1.3,6.6,1.5c0.1,0,0.1,0,0.2,0c1.4,0.2,2.8,0.3,4.3,0.3
	c1.4,0,2.8-0.1,4.1-0.2c0.1,0,0.2,0,0.3,0c0.1,0,0.1,0,0.2,0c2.3-0.3,4.6-0.8,6.7-1.6c4.4-1.7,7.1-4.3,7.1-7.3
	c0-0.6-0.1-1.1-0.3-1.7c-0.3,0.3-0.5,0.5-0.8,0.8c-5.7,4.4-13.3,5.6-20.4,5c-5.3-0.6-11.2-1.8-15-5.8C4.2,42.8,4.1,42.8,4.1,42.8z
	 M70.9,42.5c-2.8,2.9-6.8,4.4-10.7,5.2c-5.9,1.1-12.3,1.1-18.1-0.9c-0.1,0.4-0.3,0.7-0.5,1.1c0.8,1.2,1.1,2.6,1,4
	c2.9,1,6.4,1.5,10.2,1.5c10.2,0,18.5-4.1,18.5-9.2C71.2,43.7,71.1,43.1,70.9,42.5z M70.9,35.6c-3.2,3.3-7.9,4.9-12.4,5.6
	c-5.4,0.7-11.2,0.6-16.4-1.1c-0.1,0.3-0.3,0.6-0.5,0.9c0.8,1.2,1,2.6,0.9,4.1c2.9,1,6.4,1.5,10.2,1.5c10.2,0,18.5-4.1,18.5-9.2
	C71.2,36.8,71.1,36.2,70.9,35.6z M21.2,30.9c0.3,0,0.6,0,0.9,0c2.2,0,4,0.3,5.6,0.8c1.6,0.6,2.4,1.3,2.4,2.2c0,0.3-0.2,0.5-0.5,0.7
	c-0.4,0.2-0.8,0.3-1.4,0.3c-0.6,0-1-0.1-1.3-0.3c-0.3-0.2-0.5-0.4-0.8-0.7c-0.4-0.4-0.7-0.7-1.2-1c-0.5-0.2-1.3-0.3-2.4-0.3
	c-1.3,0-2.2,0.2-3,0.7c-0.7,0.5-1.1,1.2-1.4,2.1h5.6c0.2,0,0.4,0.1,0.4,0.3c0,0.2-0.1,0.4-0.3,0.6c-0.2,0.2-0.4,0.3-0.6,0.3H18
	l0,0.9c0,0.3,0,0.5,0,0.6h5.7c0.2,0,0.4,0.1,0.4,0.2c0,0.2-0.1,0.4-0.3,0.6c-0.2,0.2-0.4,0.3-0.6,0.3h-5.1c0,0.1,0,0.1,0,0.2
	c0.2,2,1.9,3.1,4.1,3.1c0.8,0,1.6-0.1,2.3-0.3c0.7-0.2,1.4-0.7,2-1.5c0.4-0.5,0.8-0.8,1.1-0.9c0.3-0.1,0.6-0.2,0.9-0.2
	c0.7,0,1.2,0.1,1.6,0.3c0.4,0.2,0.6,0.5,0.6,0.9c0,0.9-0.8,1.7-2.5,2.4c-1.7,0.7-3.7,1.1-6,1.1c-2.2,0-4.2-0.4-5.8-1.3
	c-1.7-0.8-2.7-2.1-3-3.8h-2.2c-0.2,0-0.3-0.1-0.3-0.2c0-0.2,0.1-0.3,0.4-0.6c0.2-0.2,0.4-0.3,0.5-0.3h1.5v-0.4c0-0.3,0-0.6,0-1.1
	h-2.1c-0.2,0-0.3-0.1-0.3-0.2c0-0.2,0.1-0.3,0.4-0.6c0.2-0.2,0.4-0.4,0.5-0.4h1.7C14.3,32.6,16.9,31.1,21.2,30.9z M70.9,28.8
	c-0.3,0.3-0.5,0.6-0.8,0.8c-5.7,4.4-13.3,5.6-20.4,5c-3.1-0.3-6.3-0.8-9.2-2c1.3,1.5,2.1,3.6,2,5.6c1.9,0.6,3.8,1,5.7,1.3
	c0.1,0,0.1,0,0.2,0c1.4,0.2,2.8,0.2,4.3,0.2c1.4,0,2.8-0.1,4.1-0.2c0.2,0,0.4,0,0.6-0.1c2.1-0.3,4.2-0.7,6.2-1.5
	c4.6-1.7,7.5-4.4,7.5-7.5C71.2,29.9,71.1,29.4,70.9,28.8z M22.2,28.4c-10.2,0-18.5,4.1-18.5,9.2c0,3.2,3.3,6.1,8.3,7.7
	c0.2,0.1,0.4,0.1,0.5,0.2c0,0,0.1,0,0.1,0c0.7,0.2,1.5,0.4,2.2,0.6c2.2,0.5,4.7,0.8,7.3,0.8c0.7,0,1.5,0,2.2,0
	c2.5-0.1,4.9-0.5,7.3-1.2c5.4-1.6,9-4.6,9-7.9C40.7,32.5,32.4,28.4,22.2,28.4z M52.7,16.9c2.2,0,4,0.3,5.6,0.8
	c1.6,0.6,2.4,1.3,2.4,2.2c0,0.3-0.2,0.6-0.5,0.8c-0.4,0.2-0.8,0.3-1.4,0.3c-0.6,0-1-0.1-1.3-0.3c-0.3-0.2-0.5-0.4-0.8-0.7
	c-0.4-0.4-0.7-0.7-1.2-1c-0.5-0.2-1.2-0.4-2.4-0.4c-1.3,0-2.3,0.2-3,0.7c-0.7,0.5-1.1,1.2-1.4,2.2h5.6c0.2,0,0.4,0.1,0.4,0.2
	c0,0.2-0.1,0.4-0.3,0.6c-0.2,0.2-0.4,0.3-0.6,0.3h-5.2l-0.1,0.9c0,0.3,0,0.5,0.1,0.6h5.7c0.2,0,0.4,0.1,0.4,0.2
	c0,0.2-0.1,0.4-0.3,0.6c-0.2,0.2-0.4,0.4-0.6,0.4h-5.1c0,0.1,0,0.1,0,0.1c0.2,2,1.8,3.1,4.1,3.1c0.8,0,1.6-0.1,2.3-0.3
	c0.7-0.2,1.4-0.7,2-1.5c0.4-0.5,0.8-0.8,1.1-1c0.3-0.1,0.7-0.2,1-0.2c0.7,0,1.2,0.1,1.6,0.3c0.4,0.2,0.6,0.5,0.6,0.9
	c0,0.9-0.8,1.7-2.5,2.4c-1.7,0.7-3.7,1.1-6,1.1c-2.2,0-4.1-0.4-5.8-1.2c-1.7-0.8-2.7-2.1-3-3.8h-2.2c-0.2,0-0.3-0.1-0.3-0.3
	c0-0.2,0.1-0.3,0.4-0.6c0.2-0.2,0.4-0.3,0.5-0.3h1.5v-0.4c0-0.3,0-0.6,0-1.1h-2.1c-0.2,0-0.3-0.1-0.3-0.2s0.1-0.3,0.4-0.6
	c0.2-0.2,0.4-0.3,0.5-0.3h1.7C44.9,18.4,47.8,16.9,52.7,16.9z M52.8,14.4c-10.2,0-18.5,4.1-18.5,9.2c0,3.2,3.3,6.1,8.3,7.7
	c0.2,0.1,0.3,0.1,0.5,0.2c0,0,0.1,0,0.1,0c0.7,0.2,1.5,0.4,2.2,0.6c2.2,0.5,4.7,0.8,7.3,0.8c0.7,0,1.4,0,2.1-0.1
	c2.5-0.1,4.9-0.5,7.3-1.2c5.4-1.6,9-4.5,9-7.9C71.2,18.5,63,14.4,52.8,14.4z"/>
</svg>
