<?xml version="1.0" encoding="utf-8"?>
<!-- Generator: Adobe Illustrator 19.1.0, SVG Export Plug-In . SVG Version: 6.00 Build 0)  -->
<svg version="1.1" id="Calque_1" xmlns="http://www.w3.org/2000/svg" xmlns:xlink="http://www.w3.org/1999/xlink" x="0px" y="0px"
	 viewBox="0 0 75 75" style="enable-background:new 0 0 75 75;" xml:space="preserve">
<style type="text/css">
	.st0{fill:#8EC549;stroke:#FFFFFF;stroke-miterlimit:10;}
	.st1{fill:#FFFFFF;}
</style>
<circle class="st0" cx="37.3" cy="38" r="27.7"/>
<g>
	<path class="st1" d="M44.9,50.7H27.8c0-1.6,0.5-3.1,1.5-4.5c1-1.4,3.4-3.8,7.2-7.1c1.4-0.9,2.5-2,3.5-3.2s1.4-2.7,1.4-4.3
		c0-1.4-0.4-2.5-1.2-3.3c-0.8-0.8-2-1.2-3.5-1.2c-1.3,0-2.4,0.4-3.3,1.2c-0.9,0.8-1.4,2-1.5,3.6h-3.4c0.2-2.3,1-4.1,2.5-5.4
		c1.5-1.4,3.4-2,5.8-2c2.6,0,4.5,0.7,5.9,2.1c1.4,1.4,2.1,3.1,2.1,5.2c0,1.9-0.5,3.5-1.5,5c-1,1.4-2.5,2.9-4.3,4.4
		c-4.3,3.6-6.5,5.8-6.5,6.5h12.5V50.7z"/>
</g>
</svg>
