<?xml version="1.0" encoding="utf-8"?>
<!-- Generator: Adobe Illustrator 18.1.1, SVG Export Plug-In . SVG Version: 6.00 Build 0)  -->
<svg version="1.1" id="Calque_1" xmlns="http://www.w3.org/2000/svg" xmlns:xlink="http://www.w3.org/1999/xlink" x="0px" y="0px"
	 viewBox="0 0 75 75" enable-background="new 0 0 75 75" xml:space="preserve">
<path d="M56.2,65.6H18.8V9.4h37.5V65.6z M60,5.6H15v63.8h45V5.6z"/>
<rect x="22.5" y="54.4" width="7.5" height="7.5"/>
<rect x="33.8" y="54.4" width="7.5" height="7.5"/>
<rect x="45" y="54.4" width="7.5" height="7.5"/>
<rect x="22.5" y="43.1" width="7.5" height="7.5"/>
<rect x="33.8" y="43.1" width="7.5" height="7.5"/>
<rect x="45" y="43.1" width="7.5" height="7.5"/>
<rect x="22.5" y="31.9" width="7.5" height="7.5"/>
<rect x="33.8" y="31.9" width="7.5" height="7.5"/>
<rect x="45" y="31.9" width="7.5" height="7.5"/>
<path d="M48.8,24.4H26.2v-7.5h22.5V24.4z M52.5,13.1h-30v15h30V13.1z"/>
</svg>
