<?xml version="1.0" encoding="utf-8"?>
<!-- Generator: Adobe Illustrator 18.1.1, SVG Export Plug-In . SVG Version: 6.00 Build 0)  -->
<svg version="1.1" id="Calque_1" xmlns="http://www.w3.org/2000/svg" xmlns:xlink="http://www.w3.org/1999/xlink" x="0px" y="0px"
	 viewBox="0 0 75 75" enable-background="new 0 0 75 75" xml:space="preserve">
<path d="M8.9,14.4l26.4,26.7c0.6,0.6,1.4,0.9,2.4,0.9c0,0,0,0,0,0c0.9,0,1.8-0.3,2.4-0.9l26.5-26.7H8.9z M51,37.6l18.8,19.2V18.6
	L51,37.6z M5.2,18.2v38.6l19-19.4L5.2,18.2z M8.9,60.6h57.2L47.3,41.3l-3.6,3.6c-1.5,1.5-3.8,2.4-6.1,2.4c0,0,0,0,0,0
	c-2.3,0-4.6-0.9-6.1-2.5l-3.6-3.7L8.9,60.6z M75,65.8H0V9.2h75V65.8z"/>
</svg>
