<?xml version="1.0" encoding="utf-8"?>
<!-- Generator: Adobe Illustrator 18.1.1, SVG Export Plug-In . SVG Version: 6.00 Build 0)  -->
<svg version="1.1" id="Calque_1" xmlns="http://www.w3.org/2000/svg" xmlns:xlink="http://www.w3.org/1999/xlink" x="0px" y="0px"
	 viewBox="0 0 75 75" enable-background="new 0 0 75 75" xml:space="preserve">
<path d="M52.4,63.5c-0.1,0-0.2,0-0.3,0.1L49,64.5l0-17.9L40.3,49l0,17.9l-3.1,0.9c-1,0.3-1.2,0.9-0.6,1.4l7.6,5.5
	c0.2,0.2,0.5,0.2,0.7,0.2c0.5,0,1.1-0.3,1.5-0.9l6.4-8.9C53.5,64.4,53.1,63.5,52.4,63.5z"/>
<path d="M35.1,25.3c-0.9,0-1.6-0.6-1.9-1.4c-0.3-1,0.3-2.1,1.4-2.4l15.7-4.4c1-0.3,2.1,0.3,2.4,1.4c0.3,1-0.3,2.1-1.4,2.4l-15.7,4.4
	C35.5,25.3,35.3,25.3,35.1,25.3z"/>
<path d="M35.1,33.1c-0.9,0-1.6-0.6-1.9-1.4c-0.3-1,0.3-2.1,1.4-2.4l15.7-4.4c1-0.3,2.1,0.3,2.4,1.4c0.3,1-0.3,2.1-1.4,2.4L35.6,33
	C35.5,33,35.3,33.1,35.1,33.1z"/>
<path d="M35.1,40.3c-0.9,0-1.6-0.6-1.9-1.4c-0.3-1,0.3-2.1,1.4-2.4l15.7-4.4c1-0.3,2.1,0.3,2.4,1.4c0.3,1-0.3,2.1-1.4,2.4l-15.7,4.4
	C35.5,40.3,35.3,40.3,35.1,40.3z"/>
<path d="M27.5,12.7c-2.5,0.5-4.6,2.6-4.6,5.1v37.8c-1.7,0.5-3.3,0.9-4.7,1.2c-0.5,0.1-1-0.4-1-1V14.1c-0.1-1.3,0.4-2.3,1.9-2.7
	c6.4-1.7,28.4-7.7,28.4-7.7c0.5,0,1,0.4,1,1v2.3C41.5,8.9,32.8,11.5,27.5,12.7z M56.8,4.7c-1.3,0.3-2.9,0.7-4.7,1.2V4.7
	c0-2.5-2.1-5.1-4.6-4.6C40.9,1.5,26,6.3,18.2,8c-2.5,0.5-4.6,2.6-4.6,5.1v42.7c0,2.5,2.1,4.9,4.6,4.6c1.4-0.2,3-0.5,4.7-0.9v1
	c0,2.5,2.1,4.9,4.6,4.6c3-0.4,7-1.5,11.2-2.7l0-3.9c-4,1.2-8,2.3-11.2,3c-0.5,0.1-1-0.4-1-1V18.7c-0.1-1.3,0.4-2.3,1.9-2.7
	c4.2-1.1,15.4-4.2,22.4-6.1l1.3-0.4c2.8-0.8,4.7-1.3,4.7-1.3c0.6,0,1,0.4,1,1V52c0,0.6-0.5,0.8-1,1c-1.7,0.5-3.8,1.1-6.2,1.9l0,3.8
	c2.2-0.7,4.4-1.4,6.2-2c2.4-0.8,4.6-1.7,4.6-4.6V9.3C61.4,6.8,59.3,4.2,56.8,4.7z"/>
</svg>
