<?xml version="1.0" encoding="utf-8"?>
<!-- Generator: Adobe Illustrator 19.1.0, SVG Export Plug-In . SVG Version: 6.00 Build 0)  -->
<svg version="1.1" id="Calque_1" xmlns="http://www.w3.org/2000/svg" xmlns:xlink="http://www.w3.org/1999/xlink" x="0px" y="0px"
	 viewBox="0 0 75 75" style="enable-background:new 0 0 75 75;" xml:space="preserve">
<style type="text/css">
	.st0{fill:#8EC549;stroke:#FFFFFF;stroke-miterlimit:10;}
	.st1{fill:#FFFFFF;}
</style>
<circle class="st0" cx="37.3" cy="38" r="27.7"/>
<g>
	<path class="st1" d="M40.9,36.2c1.6,0.4,2.8,1.2,3.6,2.4c0.9,1.2,1.3,2.6,1.3,4.2c0,2.4-0.8,4.3-2.4,5.8c-1.6,1.5-3.7,2.2-6.1,2.2
		s-4.4-0.7-5.9-2c-1.5-1.3-2.3-3.1-2.5-5.3h3.4c0,1.3,0.4,2.4,1.3,3.3c0.9,0.9,2.1,1.4,3.7,1.4c1.5,0,2.8-0.5,3.7-1.5
		s1.4-2.3,1.4-3.9c0-1.6-0.5-2.9-1.4-3.7c-1-0.9-2.3-1.3-4.2-1.3h-1.3v-2.6h0.8c3.2,0,4.8-1.5,4.8-4.4c0-1.3-0.4-2.3-1.1-3
		c-0.7-0.7-1.7-1-3-1c-2.6,0-4.1,1.4-4.4,4.1h-3.4c0.2-2.2,1.1-3.8,2.5-5c1.4-1.1,3.2-1.7,5.2-1.7c2.3,0,4.1,0.6,5.5,1.9
		c1.4,1.3,2,2.9,2,4.8c0,1.1-0.3,2.1-0.9,3.1C43,35,42.1,35.7,40.9,36.2z"/>
</g>
</svg>
