<?xml version="1.0" encoding="utf-8"?>
<!-- Generator: Adobe Illustrator 19.1.0, SVG Export Plug-In . SVG Version: 6.00 Build 0)  -->
<svg version="1.1" id="Calque_1" xmlns="http://www.w3.org/2000/svg" xmlns:xlink="http://www.w3.org/1999/xlink" x="0px" y="0px"
	 viewBox="0 0 612 792" style="enable-background:new 0 0 612 792;" xml:space="preserve">
<style type="text/css">
	.st0{fill:#1D3F83;}
	.st1{fill:#575CA2;}
</style>
<g>
	<path class="st0" d="M47.2,266.6c3.6,0,6.7,0.4,9.4,1.3c2.6,0.9,4.9,2.1,6.8,3.7c3.8,3.1,6.2,7.4,7.4,12.9l-11.4,2.1
		c-1-3.1-2.4-5.5-4.5-7.4c-2-1.9-4.5-2.8-7.5-2.8c-4.1,0-7.4,1.7-9.9,5.1c-2.7,3.7-4.1,8.9-4.1,15.4c0,6.6,1.2,11.7,3.6,15.4
		c2.4,3.7,5.7,5.5,9.8,5.5c4.1,0,7.2-1,9.4-3c2.1-2,3.1-4.6,3.1-7.8h11.4c0,6.5-2.1,11.6-6.2,15.1c-4.2,3.6-9.9,5.4-17.2,5.4
		c-7.7,0-13.9-2.7-18.4-8.1c-4.6-5.5-6.9-13-6.9-22.5c0-9.6,2.4-17.1,7.1-22.5C33.7,269.2,39.7,266.6,47.2,266.6L47.2,266.6z"/>
	<path class="st0" d="M122.9,297.1c0-6.7-1.4-11.8-4.2-15.5c-2.8-3.6-6.6-5.4-11.3-5.4c-4.7,0-8.5,1.8-11.3,5.4
		c-2.8,3.6-4.2,8.8-4.2,15.5c0,6.7,1.4,11.8,4.2,15.4c2.8,3.6,6.6,5.4,11.3,5.4c4.7,0,8.5-1.8,11.3-5.4
		C121.5,308.9,122.9,303.8,122.9,297.1L122.9,297.1z M107.5,266.6c3.9,0,7.5,0.6,10.7,1.9c3.2,1.3,6,3.2,8.4,5.7
		c4.9,5.3,7.4,12.8,7.4,22.7c0,9.9-2.5,17.5-7.4,23c-4.7,5-11.1,7.6-19.2,7.6c-8,0-14.4-2.6-19.1-7.7c-4.9-5.3-7.4-12.9-7.4-22.8
		c0-10,2.5-17.6,7.4-22.9C92.9,269.1,99.3,266.6,107.5,266.6L107.5,266.6z"/>
	<polygon class="st0" points="158.1,267.8 183.8,309.2 183.8,267.8 194.5,267.8 194.5,326.2 183.7,326.2 157.1,283.4 157.1,326.2 
		146.5,326.2 146.5,267.8 158.1,267.8 	"/>
	<path class="st0" d="M240.4,283.9c-1-5.1-4.6-7.6-10.8-7.6c-3.1,0-5.4,0.6-7.1,1.8c-1.7,1.2-2.6,2.7-2.6,4.5c0,1.7,0.5,3.1,1.6,4.1
		c1.1,1,2.9,1.9,5.2,2.7l12.7,5c4.3,1.7,7.6,3.8,10,6.3c2.3,2.5,3.5,5.7,3.5,9.6c0,5.3-2,9.5-5.9,12.5c-4,3.1-9.6,4.6-16.9,4.6
		c-6.5,0-11.7-1.6-15.7-4.8c-4.5-3.5-6.9-8.4-7.1-14.8h10.5c0,4.8,2.5,7.8,7.5,9.1c1.5,0.4,3.5,0.6,5.9,0.6c2.5,0,4.7-0.6,6.8-1.8
		c2.1-1.2,3.2-2.9,3.2-5c0-2.1-0.6-3.6-1.7-4.8c-1.1-1.1-3-2.1-5.6-3.1l-11.6-4.6c-4.5-1.7-7.9-3.8-10.3-6.1
		c-2.4-2.3-3.6-5.6-3.6-9.7c0-4.9,1.9-8.7,5.7-11.5c3.8-2.9,9-4.4,15.6-4.4c6.6,0,11.6,1.5,15.2,4.5c3.6,3,5.6,7.3,6.2,12.7H240.4
		L240.4,283.9z"/>
	<polygon class="st0" points="265.6,267.8 303.2,267.8 303.2,277 276.2,277 276.2,292.4 301.5,292.4 301.5,301.6 276.2,301.6 
		276.2,316.9 303.2,316.9 303.2,326.2 265.6,326.2 265.6,267.8 	"/>
	<polygon class="st0" points="319.4,267.8 330,267.8 330,326.2 319.4,326.2 319.4,267.8 	"/>
	<polygon class="st0" points="358.4,316.9 382.4,316.9 382.4,326.2 347.7,326.2 347.7,267.8 358.4,267.8 358.4,316.9 	"/>
	<path class="st0" d="M439,316.6h8.3c5.5,0,10-1.9,13.4-5.6c3.3-3.6,4.9-8.2,4.9-13.9c0-5.8-1.6-10.5-4.9-14.1
		c-3.3-3.7-7.8-5.5-13.4-5.5H439V316.6L439,316.6z M447.3,267.8c8.9,0,16,2.6,21.5,7.9c5.5,5.3,8.3,12.4,8.3,21.3
		c0,8.9-2.8,16-8.3,21.2c-5.5,5.3-12.6,7.9-21.5,7.9h-19v-58.4H447.3L447.3,267.8z"/>
	<path class="st0" d="M488.4,273.9c0-1.8,0.7-3.3,2.1-4.5c1.4-1.2,3.2-1.8,5.6-1.8c2.4,0,4.3,0.9,5.8,2.8c1.5,1.9,2.3,4.2,2.3,7
		s-1,5.5-2.9,8.2c-2,2.7-4.5,4.9-7.8,6.5l-7.4-4c4.6-2.4,7.4-5,8.4-7.9c-1.7-0.3-3.2-1-4.4-2C489,277.1,488.4,275.7,488.4,273.9
		L488.4,273.9z"/>
	<path class="st0" d="M556,297.1c0-6.7-1.4-11.8-4.2-15.5c-2.8-3.6-6.5-5.4-11.3-5.4c-4.7,0-8.5,1.8-11.3,5.4
		c-2.8,3.6-4.2,8.8-4.2,15.5c0,6.7,1.4,11.8,4.2,15.4c2.8,3.6,6.6,5.4,11.3,5.4c4.7,0,8.5-1.8,11.3-5.4
		C554.6,308.9,556,303.8,556,297.1L556,297.1z M540.5,266.6c3.9,0,7.5,0.6,10.7,1.9c3.2,1.3,6,3.2,8.4,5.7
		c4.9,5.3,7.4,12.8,7.4,22.7c0,9.9-2.5,17.5-7.4,23c-4.7,5-11.1,7.6-19.2,7.6c-8,0-14.4-2.6-19.1-7.7c-4.9-5.3-7.4-12.9-7.4-22.8
		c0-10,2.5-17.6,7.4-22.9C525.9,269.1,532.3,266.6,540.5,266.6L540.5,266.6z"/>
	<path class="st0" d="M599.5,296.3c3.9,0,6.9-0.9,8.8-2.6c2-1.8,3-4.1,3-7c0-2.9-0.9-5.3-2.7-7c-1.8-1.8-4.5-2.7-8.1-2.7h-11v19.3
		H599.5L599.5,296.3z M622.3,285.7c0,4.2-1.2,7.7-3.5,10.6c-2.3,2.9-5.7,5-10.1,6.1l15.7,23.8h-13.9l-12.9-22.8h-8.1v22.8h-10.6
		v-58.4h21.6c6.9,0,12.3,1.6,16.1,4.9C620.4,275.9,622.3,280.3,622.3,285.7L622.3,285.7z"/>
	<polygon class="st0" points="638.6,267.8 649.3,267.8 649.3,326.2 638.6,326.2 638.6,267.8 	"/>
	<polygon class="st0" points="666.1,267.8 703.7,267.8 703.7,277 676.7,277 676.7,292.4 702,292.4 702,301.6 676.7,301.6 
		676.7,316.9 703.7,316.9 703.7,326.2 666.1,326.2 666.1,267.8 	"/>
	<polygon class="st0" points="729.7,267.8 755.4,309.2 755.4,267.8 766.1,267.8 766.1,326.2 755.2,326.2 728.7,283.4 728.7,326.2 
		718.1,326.2 718.1,267.8 729.7,267.8 	"/>
	<polygon class="st0" points="776.7,267.8 823.5,267.8 823.5,277 805.4,277 805.4,326.2 794.8,326.2 794.8,277 776.7,277 
		776.7,267.8 	"/>
	<path class="st0" d="M841.1,305.6h16.4l-8.1-25.1L841.1,305.6L841.1,305.6z M842.9,267.8h13.3l19.2,58.4h-11.2l-4.1-12.6h-21.7
		l-4.1,12.6H823L842.9,267.8L842.9,267.8z"/>
	<polygon class="st0" points="874.8,267.8 921.6,267.8 921.6,277 903.5,277 903.5,326.2 892.9,326.2 892.9,277 874.8,277 
		874.8,267.8 	"/>
	<polygon class="st0" points="932.3,267.8 943,267.8 943,326.2 932.3,326.2 932.3,267.8 	"/>
	<path class="st0" d="M997.8,297.1c0-6.7-1.4-11.8-4.2-15.5c-2.8-3.6-6.6-5.4-11.3-5.4c-4.7,0-8.5,1.8-11.4,5.4
		c-2.8,3.6-4.2,8.8-4.2,15.5c0,6.7,1.4,11.8,4.2,15.4c2.8,3.6,6.6,5.4,11.4,5.4c4.7,0,8.5-1.8,11.3-5.4
		C996.3,308.9,997.8,303.8,997.8,297.1L997.8,297.1z M982.3,266.6c3.9,0,7.5,0.6,10.7,1.9c3.2,1.3,6,3.2,8.4,5.7
		c4.9,5.3,7.4,12.8,7.4,22.7c0,9.9-2.5,17.5-7.4,23c-4.7,5-11.1,7.6-19.2,7.6c-8,0-14.4-2.6-19.1-7.7c-4.9-5.3-7.4-12.9-7.4-22.8
		c0-10,2.5-17.6,7.4-22.9C967.7,269.1,974.1,266.6,982.3,266.6L982.3,266.6z"/>
	<polygon class="st0" points="1034.6,267.8 1060.3,309.2 1060.3,267.8 1070.9,267.8 1070.9,326.2 1060.1,326.2 1033.6,283.4 
		1033.6,326.2 1022.9,326.2 1022.9,267.8 1034.6,267.8 	"/>
	<path class="st0" d="M36.8,422.6h8.3c5.5,0,10-1.9,13.4-5.6c3.2-3.6,4.9-8.3,4.9-14c0-5.8-1.6-10.5-4.9-14.1
		c-3.4-3.7-7.8-5.5-13.4-5.5h-8.3V422.6L36.8,422.6z M45.1,373.8c8.9,0,16.1,2.6,21.5,7.9c5.5,5.3,8.3,12.4,8.3,21.3
		c0,8.9-2.8,16-8.3,21.2c-5.5,5.3-12.6,7.9-21.5,7.9h-19v-58.4H45.1L45.1,373.8z"/>
	<polygon class="st0" points="88.8,373.8 126.4,373.8 126.4,383 99.4,383 99.4,398.4 124.7,398.4 124.7,407.6 99.4,407.6 99.4,423 
		126.4,423 126.4,432.2 88.8,432.2 88.8,373.8 	"/>
	<path class="st0" d="M173.3,390c-1-5.1-4.6-7.6-10.8-7.6c-3.1,0-5.4,0.6-7.2,1.8c-1.7,1.2-2.6,2.7-2.6,4.5c0,1.7,0.6,3.1,1.7,4.1
		c1.1,1,2.8,1.9,5.2,2.7l12.7,5c4.3,1.7,7.6,3.8,10,6.3c2.3,2.6,3.5,5.7,3.5,9.6c0,5.3-2,9.5-5.9,12.6c-4,3.1-9.6,4.6-16.9,4.6
		c-6.5,0-11.7-1.6-15.7-4.8c-4.5-3.5-6.9-8.4-7.1-14.8h10.5c0,4.8,2.5,7.8,7.5,9.1c1.5,0.4,3.5,0.6,5.9,0.6c2.5,0,4.7-0.6,6.8-1.8
		c2.1-1.2,3.1-2.9,3.1-5c0-2.1-0.6-3.7-1.7-4.8c-1.2-1.1-3-2.1-5.6-3.1l-11.6-4.6c-4.5-1.7-8-3.8-10.3-6.1c-2.4-2.3-3.6-5.6-3.6-9.7
		c0-4.9,1.9-8.7,5.7-11.5c3.8-2.9,9-4.4,15.6-4.4c6.6,0,11.6,1.5,15.2,4.6c3.6,3,5.6,7.3,6.1,12.7H173.3L173.3,390z"/>
	<path class="st0" d="M247.8,402.4c3.9,0,6.8-0.9,8.8-2.7c2-1.8,3-4.1,3-7c0-2.9-0.9-5.3-2.7-7c-1.8-1.8-4.5-2.7-8.1-2.7h-11v19.3
		H247.8L247.8,402.4z M270.6,391.8c0,4.1-1.2,7.7-3.5,10.6c-2.4,2.9-5.7,5-10.1,6.1l15.7,23.8h-13.9l-12.9-22.8h-8.1v22.8h-10.6
		v-58.4h21.6c6.9,0,12.3,1.6,16.1,4.9C268.7,382,270.6,386.3,270.6,391.8L270.6,391.8z"/>
	<polygon class="st0" points="284.4,373.8 322.1,373.8 322.1,383 295.1,383 295.1,398.4 320.4,398.4 320.4,407.6 295.1,407.6 
		295.1,423 322.1,423 322.1,432.2 284.4,432.2 284.4,373.8 	"/>
	<polygon class="st0" points="332.1,373.8 378.9,373.8 378.9,383 360.8,383 360.8,432.2 350.1,432.2 350.1,383 332.1,383 
		332.1,373.8 	"/>
	<path class="st0" d="M410.2,402.4c3.9,0,6.8-0.9,8.8-2.7c2-1.8,3-4.1,3-7c0-2.9-0.9-5.3-2.7-7c-1.8-1.8-4.5-2.7-8.1-2.7h-11v19.3
		H410.2L410.2,402.4z M432.9,391.8c0,4.1-1.2,7.7-3.5,10.6c-2.3,2.9-5.7,5-10.1,6.1l15.7,23.8h-13.9l-12.9-22.8h-8.1v22.8h-10.6
		v-58.4h21.6c6.9,0,12.3,1.6,16.1,4.9C431.1,382,432.9,386.3,432.9,391.8L432.9,391.8z"/>
	<path class="st0" d="M461,411.6h16.4l-8.1-25.1L461,411.6L461,411.6z M462.8,373.8h13.3l19.2,58.4H484l-4-12.6h-21.7l-4.1,12.6
		h-11.3L462.8,373.8L462.8,373.8z"/>
	<polygon class="st0" points="507.4,373.8 518.1,373.8 518.1,432.2 507.4,432.2 507.4,373.8 	"/>
	<polygon class="st0" points="528.8,373.8 575.6,373.8 575.6,383 557.5,383 557.5,432.2 546.8,432.2 546.8,383 528.8,383 
		528.8,373.8 	"/>
	<polygon class="st0" points="586.2,373.8 623.8,373.8 623.8,383 596.8,383 596.8,398.4 622.1,398.4 622.1,407.6 596.8,407.6 
		596.8,423 623.8,423 623.8,432.2 586.2,432.2 586.2,373.8 	"/>
	<path class="st0" d="M669.9,390c-1-5.1-4.6-7.6-10.8-7.6c-3.1,0-5.4,0.6-7.1,1.8c-1.7,1.2-2.6,2.7-2.6,4.5c0,1.7,0.6,3.1,1.7,4.1
		c1.1,1,2.8,1.9,5.2,2.7l12.7,5c4.3,1.7,7.6,3.8,10,6.3c2.3,2.6,3.5,5.7,3.5,9.6c0,5.3-2,9.5-5.9,12.6c-4,3.1-9.6,4.6-16.9,4.6
		c-6.5,0-11.7-1.6-15.8-4.8c-4.5-3.5-6.9-8.4-7.1-14.8h10.5c0,4.8,2.5,7.8,7.5,9.1c1.5,0.4,3.5,0.6,5.9,0.6c2.5,0,4.7-0.6,6.8-1.8
		c2.1-1.2,3.2-2.9,3.2-5c0-2.1-0.6-3.7-1.7-4.8c-1.1-1.1-3-2.1-5.6-3.1l-11.6-4.6c-4.5-1.7-8-3.8-10.4-6.1c-2.4-2.3-3.6-5.6-3.6-9.7
		c0-4.9,1.9-8.7,5.7-11.5c3.8-2.9,9.1-4.4,15.6-4.4c6.6,0,11.7,1.5,15.2,4.6c3.6,3,5.6,7.3,6.2,12.7H669.9L669.9,390z"/>
	<path class="st0" d="M-254,363.5c-2.2,4.6-8.1,12.2-20.2,12.2c-15.2,0-23.6-10.6-23.6-25.6c0-15.1,9.1-25.6,23.6-25.6
		c11.5,0,17.2,7.1,19.7,11.3l-7.6,4.7c-2.4-5.2-6.3-8.2-12.1-8.2c-8.7,0-14,7-14,17.8c0,10.8,5.1,17.5,14,17.5
		c5.6,0,9.6-2.8,11.9-7.6L-254,363.5L-254,363.5z"/>
	<path class="st0" d="M-210.1,367.7c9,0,14-6.5,14-17.7c0-11.2-5.1-17.9-14-17.9c-9,0-14,6.8-14,17.9
		C-224.1,361.2-219.2,367.7-210.1,367.7L-210.1,367.7z M-210.1,324.3c14.7,0,24,10.5,24,25.7c0,15.2-8.7,25.7-24,25.7
		c-15.1,0-24-10.5-24-25.7C-234.2,334.8-224.8,324.3-210.1,324.3L-210.1,324.3z"/>
	<path class="st0" d="M-154,347.1h9.3c3.5,0,5.4-0.3,6.9-1c2.2-1,3.5-3.5,3.5-6.1c0-2.7-1.3-5.1-3.5-6c-1.5-0.7-3.4-0.9-6.9-0.9
		h-9.3V347.1L-154,347.1z M-154,354.9v19.7h-8.7v-49.3h18c4.2,0,8.6,0.1,12.4,2.3c4.3,2.5,7,6.6,7,12.6c0,5.4-2.5,9.4-6.5,12.1
		c-1.2,0.7-2.7,1.3-3.8,1.8l12.3,20.6h-10.4l-11.4-19.7H-154L-154,354.9z"/>
	<path class="st0" d="M-274.4,425.4c-4.4-3.9-8.3-8-11.7-12.5l-6.8,27.7c-0.4,1.7,0,3.3,1.2,4.3c1.2,1,2.8,1.2,4.4,0.6l26.6-10.2
		C-265.4,432.5-270,429.2-274.4,425.4L-274.4,425.4z"/>
	<path class="st0" d="M-133.1,254.7l-26.5,10.6c4.8,2.8,9.5,6.1,13.9,9.8c4.4,3.8,8.4,7.9,11.9,12.3l6.4-27.8
		c0.4-1.7-0.1-3.3-1.2-4.3C-129.8,254.3-131.5,254.1-133.1,254.7L-133.1,254.7z"/>
	<path class="st0" d="M-30.6,329.9c0-89.6-72.6-162.2-162.2-162.2c-58.8,0-110.3,31.3-138.7,78.1c28.2-23.6,64.5-37.8,104.1-37.8
		c89.6,0,162.2,72.6,162.2,162.2c0,30.8-8.6,59.6-23.5,84.1C-53.2,424.5-30.6,379.9-30.6,329.9L-30.6,329.9z"/>
	<path class="st1" d="M-355,329.9c0-30.8,8.6-59.6,23.5-84.1c-35.5,29.7-58.1,74.4-58.1,124.4c0,89.6,72.6,162.2,162.2,162.2
		c58.8,0,110.3-31.3,138.7-78.1c-28.2,23.6-64.5,37.8-104.1,37.8C-282.4,492.1-355,419.5-355,329.9L-355,329.9z"/>
</g>
</svg>
